<svg xmlns="http://www.w3.org/2000/svg" viewBox="0 0 98 96" aria-hidden="true">
  <path fill="#24292f" fill-rule="evenodd" d="M48.854 0C21.839 0 0 22 0 49.217c0 21.756 13.993 40.189 33.405 46.69 2.427.49 3.316-1.059 3.316-2.362 0-1.141-.045-5.052-.045-9.127-13.622 2.986-16.522-5.874-16.522-5.874-2.229-5.658-5.438-7.17-5.438-7.17-4.457-3.048.338-3.015.338-3.015 4.934.338 7.527 5.065 7.527 5.065 4.367 7.496 11.404 5.378 14.235 4.109.404-3.178 1.699-5.378 3.074-6.6-10.839-1.141-22.243-5.378-22.243-24.283 0-5.378 1.94-9.778 5.114-13.221-.507-1.242-2.224-6.125.507-12.776 0 0 4.181-1.274 13.706 5.052a47.8 47.8 0 0 1 12.504-1.683c4.242.045 8.501.574 12.504 1.683 9.525-6.326 13.697-5.052 13.697-5.052 2.731 6.651 1.014 11.534.507 12.776 3.174 3.443 5.114 7.843 5.114 13.221 0 18.905-11.404 23.106-22.324 24.283 1.781 1.548 3.316 4.481 3.316 9.126 0 6.6-.045 11.916-.045 13.526 0 1.304.889 2.853 3.316 2.364 19.412-6.52 33.405-24.935 33.405-46.691C97.707 22 75.788 0 48.854 0Z"/>
</svg>
